<?xml version="1.0" encoding="utf-8"?>
<svg version="1.0" width="2220.000000pt" height="519.000000pt" viewBox="0 0 2220.000000 519.000000" preserveAspectRatio="xMidYMid meet" xmlns="http://www.w3.org/2000/svg">
  <g transform="translate(0.000000,519.000000) scale(0.100000,-0.100000)" fill="#000000" stroke="none">
    <path d="M21591 5174 c-134 -36 -255 -136 -314 -261 -31 -65 -32 -73 -32 -194&#10;0 -124 0 -126 37 -200 86 -173 243 -271 438 -271 147 0 256 47 353 151 87 95&#10;127 194 127 321 0 130 -43 232 -135 326 -66 67 -133 106 -222 129 -71 19 -181&#10;18 -252 -1z m287 -118 c268 -137 264 -550 -6 -674 -112 -51 -252 -39 -356 29&#10;-169 113 -207 382 -76 548 73 93 166 133 295 128 74 -3 99 -8 143 -31z" style=""/>
    <path d="M21570 4952 l-35 -7 0 -235 0 -235 55 0 55 0 3 93 3 92 43 0 c62 0&#10;90 -25 105 -97 20 -90 23 -93 90 -93 l59 0 -14 53 c-8 28 -19 70 -25 91 -6 22&#10;-25 53 -42 69 -21 20 -28 32 -19 35 32 10 72 56 78 87 8 46 -21 104 -65 129&#10;-28 16 -56 20 -145 22 -61 1 -127 -1 -146 -4z m194 -82 c35 -13 50 -48 37 -82&#10;-11 -29 -58 -48 -118 -48 l-33 0 0 70 0 70 44 0 c25 0 56 -4 70 -10z" style=""/>
    <rect x="421.93" y="-4670.702" width="7172.808" height="4251.755" style="stroke: rgb(255, 240, 15); fill: rgb(255, 240, 15);" transform="matrix(1, 0, 0, -1, 0, 0)"/>
    <path d="M0 2590 l0 -2590 4070 0 4070 0 0 2590 0 2590 -4070 0 -4070 0 0&#10;-2590z m5550 1461 c0 -136 4 -271 10 -299 15 -79 49 -142 111 -203 180 -178&#10;478 -127 594 100 36 72 45 151 45 414 l0 237 400 0 400 0 0 -690 0 -690 -1185&#10;0 -1185 0 0 690 0 690 405 0 405 0 0 -249z m-1880 -1461 l0 -1560 -1255 0&#10;-1255 0 0 530 0 529 733 3 c727 3 732 4 798 26 182 61 311 213 340 402 41 263&#10;-152 521 -417 560 -41 6 -352 10 -761 10 l-693 0 0 530 0 530 1255 0 1255 0 0&#10;-1560z m3440 -1115 l0 -445 -1175 0 -1175 0 0 445 0 445 1175 0 1175 0 0 -445z" style=""/>
    <path d="M19385 5140 c-286 -33 -571 -139 -795 -298 -143 -101 -340 -302 -433&#10;-442 -186 -281 -277 -590 -277 -940 1 -284 54 -520 170 -755 85 -172 174 -298&#10;305 -429 224 -226 476 -374 767 -451 287 -75 669 -75 955 0 468 123 875 460&#10;1082 895 220 463 214 1049 -15 1505 -78 157 -170 281 -314 425 -265 265 -543&#10;409 -915 475 -107 19 -415 28 -530 15z m381 -661 c357 -63 657 -356 755 -737&#10;30 -119 42 -270 29 -393 -26 -264 -116 -464 -289 -643 -129 -133 -261 -213&#10;-429 -258 -113 -30 -334 -31 -454 0 -265 66 -488 253 -620 517 -119 238 -142&#10;553 -61 825 102 341 385 614 709 684 82 17 276 20 360 5z" style="fill: rgb(66, 39, 116);"/>
    <path d="M9887 5073 c-4 -3 -7 -741 -7 -1640 l0 -1633 1210 0 1210 0 0 330 0&#10;330 -835 0 -835 0 0 330 0 330 730 0 730 0 0 320 0 320 -730 0 -730 0 0 325 0&#10;325 810 0 810 0 0 335 0 335 -1178 0 c-648 0 -1182 -3 -1185 -7z" style="fill: rgb(66, 39, 116);"/>
    <path d="M13280 3440 l0 -1640 375 0 375 0 2 996 3 995 422 -858 422 -858 227&#10;0 227 0 426 863 426 862 3 -1000 2 -1000 375 0 375 0 -2 1638 -3 1637 -492 3&#10;c-461 2 -493 1 -503 -15 -6 -10 -193 -405 -416 -878 -223 -473 -408 -863 -412&#10;-867 -4 -4 -189 380 -411 855 -222 474 -410 872 -418 885 l-13 22 -495 0 -495&#10;0 0 -1640z" style="fill: rgb(66, 39, 116);"/>
    <path d="M10203 1276 c-270 -62 -453 -292 -453 -571 0 -274 172 -494 440 -561&#10;89 -22 261 -15 345 15 91 33 255 151 255 185 0 6 -35 45 -77 88 l-76 77 -49&#10;-44 c-83 -74 -126 -90 -248 -90 -92 0 -111 3 -154 25 -64 33 -130 108 -153&#10;173 -24 69 -24 195 0 264 50 143 217 232 379 203 78 -15 128 -40 188 -96 l47&#10;-44 63 72 c35 40 70 81 79 91 13 16 12 20 -15 48 -50 52 -156 118 -234 145&#10;-93 33 -242 41 -337 20z" style="fill: rgb(66, 39, 116);"/>
    <path d="M19083 1276 c-111 -26 -190 -71 -279 -160 -95 -95 -136 -170 -160&#10;-291 -37 -190 18 -384 146 -514 124 -126 258 -181 439 -181 165 0 295 54 411&#10;170 120 119 170 238 170 403 0 110 -14 175 -55 262 -63 132 -182 237 -333 292&#10;-84 32 -245 40 -339 19z m284 -246 c69 -34 119 -88 155 -166 19 -41 23 -66 23&#10;-154 0 -93 -3 -112 -26 -161 -36 -76 -90 -133 -157 -166 -48 -24 -70 -28 -137&#10;-28 -67 0 -89 4 -136 28 -139 68 -217 226 -189 385 26 150 120 259 254 293 56&#10;15 147 1 213 -31z" style="fill: rgb(66, 39, 116);"/>
    <path d="M11470 700 l0 -560 125 0 125 0 2 178 3 177 85 2 85 3 123 -180 123&#10;-180 156 0 155 0 -16 25 c-9 14 -73 104 -141 200 l-124 175 32 16 c66 34 106&#10;75 139 142 32 65 33 70 33 192 0 109 -3 131 -23 175 -29 63 -74 110 -136 142&#10;-88 45 -157 53 -463 53 l-283 0 0 -560z m561 330 c61 -17 83 -50 87 -133 3&#10;-63 1 -77 -20 -107 -38 -57 -65 -65 -230 -68 l-148 -3 0 159 c0 87 2 161 4&#10;163 8 8 272 -1 307 -11z" style="fill: rgb(66, 39, 116);"/>
    <path d="M13113 703 l2 -558 413 -3 412 -2 0 115 0 115 -285 0 -285 0 0 110 0&#10;110 250 0 250 0 0 110 0 110 -250 0 -250 0 0 115 0 115 280 0 280 0 0 110 0&#10;110 -410 0 -410 0 3 -557z" style="fill: rgb(66, 39, 116);"/>
    <path d="M14967 1228 c-8 -18 -114 -265 -237 -548 -122 -283 -225 -521 -227&#10;-527 -4 -10 26 -13 130 -13 l135 0 50 117 51 118 236 0 236 0 51 -117 50 -118&#10;134 0 c74 0 134 1 134 3 0 2 -108 253 -239 558 l-240 554 -125 3 -125 3 -14&#10;-33z m206 -463 l64 -150 -63 -3 c-35 -2 -94 -2 -133 0 l-69 3 66 152 c36 84&#10;67 152 68 150 2 -1 32 -70 67 -152z" style="fill: rgb(66, 39, 116);"/>
    <path d="M16142 1153 l3 -108 158 -3 157 -3 0 -449 0 -450 125 0 125 0 0 450&#10;0 450 160 0 160 0 0 110 0 110 -445 0 -446 0 3 -107z" style="fill: rgb(66, 39, 116);"/>
    <path d="M17690 700 l0 -561 128 3 127 3 3 558 2 557 -130 0 -130 0 0 -560z" style="fill: rgb(66, 39, 116);"/>
    <path d="M20500 700 l0 -561 128 3 127 3 5 340 5 340 260 -343 260 -342 128 0&#10;127 0 0 560 0 560 -130 0 -130 0 -2 -351 -3 -350 -265 348 -265 348 -123 3&#10;-122 3 0 -561z" style="fill: rgb(66, 39, 116);"/>
  </g>
</svg>